PathFileType	4	(X/Y/Z)	OpenSim_Sub10_CSBaseline_Accel.trc
DataRate	CameraRate	NumFrames	NumMarkers	Units	OrigDataRate	OrigDataStartFrame	OrigNumFrames
100	100	24	8	m	100	5695	9111
Frame#	Time	torso_imu_offset_imu	pelvis_imu_offset_imu	tibia_r_imu_offset_imu	femur_r_imu_offset_imu	tibia_l_imu_offset_imu	femur_l_imu_offset_imu	toes_r_imu_offset_imu	toes_l_imu_offset_imu
				X1	Y1	Z1	X2	Y2	Z2	X3	Y3	Z3	X4	Y4	Z4	X5	Y5	Z5	X6	Y6	Z6	X7	Y7	Z7	X8		Y8	Z8	

5695	56.94000000	9.61328724	0.21944950	6.14179872	9.90537936	-0.65215604	3.31381209	3.82417986	8.01496280	3.87577936	10.58300911	-1.08741375	2.41350799	9.85187206	-4.15865091	-1.23631871	9.06944317	4.57648791	-1.61940352	2.81473387	-0.18977577	8.16760448	5.31305411	0.37854602	11.11677391
5696	56.95000000	9.50004987	0.10164679	6.11471627	9.73196858	-0.79651837	3.20276442	3.19072025	6.17433479	5.18936642	10.15866734	-1.02954403	2.37189391	9.82307369	-2.94011713	-0.80594872	9.23537443	3.08470011	-2.01079489	2.86560977	-0.50105942	7.77371213	5.15752348	0.55835640	11.23281259
5697	56.96000000	9.33616833	0.03422466	6.19552355	9.49775654	-0.87699267	3.19201521	2.68520358	4.96792363	5.00434475	9.74587269	-1.24232785	2.35119638	10.09635924	-1.40647462	-0.44463148	9.16403971	1.60666155	-2.24600745	2.83433940	-1.01473574	7.43171242	5.17314240	0.66499434	11.26769247
5698	56.97000000	9.11431217	0.09041000	6.18808936	9.33710841	-0.89495663	3.05841935	2.37972353	4.48817483	4.16672533	9.41442958	-1.51437924	2.16851380	10.28909435	-0.55683649	-0.18670477	9.18058271	1.15630434	-2.49384616	2.40623539	-0.69316743	7.32980729	5.42607946	0.76133063	11.05264622
5699	56.98000000	9.09284491	0.12091523	6.12462493	9.08363110	-0.79840573	2.98340056	1.80781613	4.56090200	3.78008532	9.12709304	-1.85834506	2.01333273	10.16820869	-0.55551943	-0.08683246	9.35365968	0.76099501	-2.37297105	2.01352173	0.04330876	7.28964388	5.45200814	0.71811437	10.95366737
5700	56.99000000	9.09416316	0.10740272	6.04220488	8.78286484	-0.61253735	2.91252859	1.36719074	4.47426445	3.67187441	9.04635594	-2.04599902	1.96834339	9.86406972	-0.83062847	-0.10444940	9.17521308	1.03831930	-2.57547398	1.86475690	0.94251272	7.22508352	5.74165574	0.70176112	10.81848761
5701	57.00000000	8.77756538	0.11664479	6.07928868	8.68563866	-0.34354895	2.81177961	1.33696439	4.05623736	3.64474633	9.12041835	-2.09286536	1.92199826	9.49426426	-1.07980166	0.02288519	9.10138273	1.38118270	-2.47286341	1.56103072	1.47236936	6.85510441	5.23531606	0.77812084	11.15339649
5702	57.01000000	8.36751094	0.09355250	6.08998221	8.70711471	-0.10011041	2.72954259	1.62985961	3.38663354	3.54224248	9.14755106	-2.20083870	2.04837506	8.98550784	-1.78502829	0.00800362	9.04012074	1.82944797	-2.29439445	1.58645754	1.44645134	6.47773177	5.52907558	0.84190551	10.85903190
5703	57.02000000	8.26710037	0.11397774	6.07324930	8.79184959	0.16427563	2.62680655	2.40501927	2.50638962	3.23298864	9.10816163	-2.34723224	2.19366970	8.92629592	-2.39643615	-0.28677157	8.91185767	2.44912681	-2.07314032	2.23214945	1.55999317	6.73412767	5.49613892	0.64223987	10.80154536
5704	57.03000000	8.20815170	0.15466603	6.08852451	8.89068420	0.41988940	2.64999072	3.10759882	1.91202022	3.21981492	9.00268461	-2.50774514	2.20386530	9.23274541	-2.50993343	-0.33472634	8.55797476	2.85215847	-1.79902084	3.57325482	1.88850641	7.44191357	5.65046053	0.84232764	10.67853436
5705	57.04000000	8.12004606	0.20687770	6.12853845	8.96410082	0.47320049	2.70025935	3.73612764	1.99099731	2.88030751	8.75577530	-2.51243447	2.13757987	9.19097214	-2.09468832	-0.26055301	8.24087487	3.12600165	-1.64138410	4.60099821	2.04526227	8.24688476	5.27852119	0.83771159	10.78933039
5706	57.05000000	8.01091312	0.24497561	6.24761233	8.87263674	0.45307764	2.77060682	4.33788433	2.37854197	2.14314925	8.36353100	-2.37885832	2.08371551	9.09002125	-1.21077183	-0.34719708	8.19937258	3.05348676	-1.55186869	5.05352106	2.44321517	8.87063181	5.42700317	1.03634748	10.82176737
5707	57.06000000	7.85345852	0.23567808	6.26580290	8.66596638	0.32950134	2.71217351	5.08462238	3.41000816	1.38275554	8.06911847	-2.15893107	1.99156167	9.63273029	-0.58591045	-0.33097286	8.37180323	2.99242716	-1.46377526	5.13267003	3.10268502	9.15898279	5.61290595	1.15019938	10.65893912
5708	57.07000000	7.69441585	0.32392804	6.22425499	8.37309421	0.14462080	2.76767677	5.77406237	5.00505721	0.86714360	7.89802118	-1.86367900	1.89676057	9.78056483	-0.42689888	-0.11801098	8.05543720	2.83427923	-1.73128952	5.34893946	3.56419902	9.03507678	5.69250183	1.02936521	10.50778039
5709	57.08000000	7.50446809	0.31880017	6.14912817	8.11793379	-0.09982434	2.82628240	6.40036852	6.44829754	0.78017830	7.81727673	-1.61893247	1.80327268	9.83082908	-0.26392565	0.20153515	8.01291035	2.65735299	-1.79206386	5.98287229	3.38839419	8.75417505	5.39168971	0.90470677	10.84505088
5710	57.09000000	7.35768876	0.32730516	6.17629099	7.95143942	-0.30227601	2.79485350	6.99372951	7.33035037	1.58530459	7.68937415	-1.39650884	1.73564738	9.87244560	-0.25019060	0.47299017	8.13926586	2.71722302	-1.84169261	7.25907513	2.96896031	8.85450706	5.18268547	0.73712203	11.00315222
5711	57.10000000	7.34600878	0.37160038	6.26092384	7.96554059	-0.50009565	2.70620588	7.46328159	7.81754826	3.02625618	7.48742047	-1.28559726	1.59827766	10.00627333	-0.20215899	0.51187719	8.28540812	2.82109851	-1.94951339	8.65571081	2.37262125	9.28572544	5.45526925	0.70591022	10.84805365
5712	57.11000000	7.40793981	0.40726514	6.31023522	8.11979948	-0.66041970	2.59749819	7.71673981	8.20272208	3.68993058	7.23105448	-1.27608788	1.44743657	10.04850708	0.09841940	0.66075885	8.66059253	2.86137258	-1.86825349	9.69841455	1.38437171	9.80629377	5.41110454	0.44692002	10.76565382
5713	57.12000000	7.47956010	0.47780727	6.29858633	8.29227178	-0.74740248	2.43205481	7.73015721	8.52995923	2.81751744	7.02466670	-1.45880876	1.31184977	10.10116203	0.29438402	0.76771415	8.85713274	3.14685154	-1.79504812	11.37428570	-0.00191722	10.51781183	5.30303152	0.50075004	10.97767275
5714	57.13000000	7.62885874	0.43434726	6.27003751	8.47484947	-0.85240518	2.43819615	7.76062934	8.74942736	1.62412325	6.92354247	-1.59834669	1.27924321	10.17171650	0.24425490	0.88693345	8.94726428	3.24220154	-1.61558597	14.28763895	-0.95614900	11.49764383	4.67874029	0.42066559	11.29252165
5715	57.14000000	7.82286732	0.50795775	6.29834294	8.60310290	-0.92956037	2.58968613	7.63013838	8.40910519	1.36349783	6.99294314	-1.70867745	1.32685085	10.06045621	0.04083430	0.73068776	9.22700378	3.12096060	-1.36788486	16.67516527	-0.80675493	11.70750805	5.09299123	0.39861650	11.13908262
5716	57.15000000	8.05059677	0.49063103	6.36128606	8.76871665	-0.94540321	2.77703809	7.74790831	6.75186914	1.39928284	7.27134672	-2.05332592	1.40396373	10.04214103	-0.11414082	0.56665308	9.08609838	3.24613954	-1.40730361	17.04227352	0.07848906	10.87386445	5.32978750	0.22983222	11.07263079
5717	57.16000000	8.32835234	0.56584203	6.46795625	8.90539311	-0.92213340	2.84635115	8.15667940	4.28905856	1.61846446	7.60757518	-2.42276385	1.64747857	9.97668942	-0.30603221	0.55381581	9.22328821	2.86712976	-1.50651180	16.73725305	0.68182012	9.49133635	5.50855310	0.03348569	10.94834148
5718	57.17000000	8.57955726	0.63312406	6.55551662	9.13398509	-0.85301848	2.78622161	9.14981340	2.09145032	1.84207382	8.00886301	-2.79396616	1.86917069	10.13593552	-0.39293171	0.24798416	9.01922915	2.77993979	-1.79465574	16.96049502	1.26174557	8.20315028	4.85610087	0.04445081	11.27534182
